<svg xmlns="http://www.w3.org/2000/svg" xmlns:xlink="http://www.w3.org/1999/xlink" width="99.91" height="72.25" viewBox="0 0 99.91 72.25">
  <metadata><?xpacket begin="﻿" id="W5M0MpCehiHzreSzNTczkc9d"?>
<x:xmpmeta xmlns:x="adobe:ns:meta/" x:xmptk="Adobe XMP Core 5.6-c142 79.160924, 2017/07/13-01:06:39        ">
   <rdf:RDF xmlns:rdf="http://www.w3.org/1999/02/22-rdf-syntax-ns#">
      <rdf:Description rdf:about=""/>
   </rdf:RDF>
</x:xmpmeta>
                                                                                                    
                                                                                                    
                                                                                                    
                                                                                                    
                                                                                                    
                                                                                                    
                                                                                                    
                                                                                                    
                                                                                                    
                                                                                                    
                                                                                                    
                                                                                                    
                                                                                                    
                                                                                                    
                                                                                                    
                                                                                                    
                                                                                                    
                                                                                                    
                                                                                                    
                                                                                                    
                           
<?xpacket end="w"?></metadata>
<defs>
    <style>
      .cls-1 {
        fill: #737373;
        fill-rule: evenodd;
        filter: url(#filter);
      }
    </style>
    <filter id="filter" x="908.75" y="5163.66" width="99.91" height="72.25" filterUnits="userSpaceOnUse">
      <feFlood result="flood" flood-color="#a4c58c"/>
      <feComposite result="composite" operator="in" in2="SourceGraphic"/>
      <feBlend result="blend" in2="SourceGraphic"/>
    </filter>
  </defs>
  <path id="new_vector_shape_done" class="cls-1" d="M933.17,5163.71c4.993-.08,10.175.05,14.268,1.07,2.034,0.51,3.822.54,5.668,1.18a26.016,26.016,0,0,1,4.006,1.75,6.73,6.73,0,0,0,1.759,1.17,4.243,4.243,0,0,1,1.368-.97,24.619,24.619,0,0,1,6.255-2.54c0.857-.26,1.548-0.16,2.443-0.39,1.8-.47,4.118-0.53,6.059-0.98h1.563c1.227-.26,2.879.11,4.3-0.19a10.651,10.651,0,0,1,3.518,0c1.415,0.31,3.075-.08,4.3.19h1.563c1.007,0.23,2.207.13,3.323,0.39a69.279,69.279,0,0,1,7.527,1.76c2.68,0.99,5.38,2.01,6.84,4.2,0.85,1.27.68,3.52,0.68,5.66v41.39c0,5.69.14,11.65-.1,17.17a4.016,4.016,0,0,1-1.66,1.27,3.5,3.5,0,0,1-1.76-.39c-1.17-.33-2.48-0.32-3.61-0.58-1.27-.29-2.637-0.14-3.813-0.39H996.2c-0.852-.19-2,0.02-3.029-0.2a34.016,34.016,0,0,0-6.45-.29c-2.19,0-4.814-.44-6.84,0-0.855.18-2-.06-2.737,0.1h-2.54c-1.134.24-2.721,0.15-3.812,0.39-1.139.06-2.28,0.13-3.42,0.19-1.986.45-4.186,0.32-6.254,0.78a7.018,7.018,0,0,1-2.932.39c-2.5-.6-5.533-0.59-8.111-1.17-1.383-.31-2.91-0.11-4.2-0.39-1.4-.06-2.8-0.13-4.2-0.19h-1.563a17.309,17.309,0,0,0-5.082-.1c-0.7.12-1.907-.16-2.638,0q-3.372.045-6.743,0.1c-1,.21-2.263-0.06-3.42.19-2.644.57-5.727,0.38-8.209,0.98-1.765.43-3.944,1.01-4.886-.39-0.616-.92-0.293-3.36-0.293-4.79v-58.27a5.218,5.218,0,0,0,.586-1.27,7.028,7.028,0,0,1,1.466-1.66c2.88-2.16,6.453-3.05,10.554-4.1,2.683-.68,5.7-0.36,8.5-0.97C930.872,5163.61,932.455,5164.16,933.17,5163.71Zm-1.661,4.2a7.789,7.789,0,0,1-1.661.1c-1.185.26-2.454,0-3.714,0.29-4.83,1.11-10.09,1.21-13.094,4.1v54.37a33.291,33.291,0,0,0,0,4.29,0.529,0.529,0,0,0,.293.1c0.7-.46,1.889-0.18,2.834-0.39,1.544-.34,3.5-0.24,5.081-0.59h1.857c1.092-.23,2.537.08,3.811-0.19,1.987-.43,4.573-0.2,6.841-0.2a181.575,181.575,0,0,1,22.769,1.56c0.416-1.26.1-4.03,0.1-5.56v-53.2a0.631,0.631,0,0,1-.1-0.39C950.472,5168.35,941.449,5167.98,931.509,5167.91Zm29.317,63.44a37.956,37.956,0,0,0,5.668-.78c1.351-.3,2.851-0.11,4.1-0.39h1.661c1.472-.32,3.462-0.06,4.984-0.39h7.72a154.857,154.857,0,0,1,19.447,1.37V5172.3c-0.36-.23-0.61-0.67-0.98-0.88a22.147,22.147,0,0,0-3.22-1.17c-4.679-1.73-10.682-2.34-17.006-2.34-4.448,0-8.88.03-12.508,0.97-0.665.18-1.1,0.01-1.759,0.2-2.981.84-6.165,1.45-8.111,3.32v58.95Zm-37.916-45.87h17.2c3.2,0,6.075-.76,6.058,2.63-0.477.53-.609,1.21-1.368,1.47-1.212.41-3.9,0.09-5.374,0.09H927.5c-3.282,0-6.186.77-6.157-2.73a6.914,6.914,0,0,1,.88-1.17A5.347,5.347,0,0,0,922.91,5185.48Zm50.033,0h17.2c1.935,0,5.146-.47,5.668.97,1.131,1.15-.162,3.13-1.563,3.13-0.6.37-4.083,0.09-5.082,0.09H976.07c-2.019,0-4.3.26-4.5-1.56C970.644,5186.95,972.44,5185.91,972.943,5185.48Zm-50.033,12.49h17.2c3.206,0,6.075-.76,6.058,2.64-0.48.53-.609,1.19-1.368,1.46-1.181.42-3.921,0.1-5.374,0.1H927.5c-3.277,0-6.186.75-6.157-2.73a7.228,7.228,0,0,1,.782-1.08A6.333,6.333,0,0,0,922.91,5197.97Zm50.131,0h17.2c2.975,0,5.944-.59,5.961,2.44-0.48.63-.576,1.35-1.368,1.66-1.029.41-3.767,0.1-5.081,0.1H977.829c-2.346,0-6.023.58-6.254-1.56a1.773,1.773,0,0,1,0-1.47c0.231-.18.277-0.5,0.489-0.68C972.336,5198.23,972.761,5198.19,973.041,5197.97Zm-50.131,12.5H944.6c0.825,0.25,1.041.91,1.563,1.46,0.013,1.42-.362,2.28-1.368,2.64-1.241.43-4.144,0.09-5.668,0.09H927.8c-1.4,0-3.943.3-5.082-.09a3.814,3.814,0,0,1-1.368-1.37C921.3,5211.09,921.878,5211.38,922.91,5210.47Zm50.131,0h17.2c2.98,0,5.944-.61,5.961,2.44-0.472.61-.568,1.37-1.368,1.66-1.156.41-3.851,0.09-5.277,0.09H977.829c-2.346,0-6.023.58-6.254-1.56a1.751,1.751,0,0,1,0-1.46,5.192,5.192,0,0,0,.391-0.59A9.971,9.971,0,0,1,973.041,5210.47Z" transform="translate(-908.75 -5163.66)"/>
</svg>
