<svg xmlns="http://www.w3.org/2000/svg" xmlns:xlink="http://www.w3.org/1999/xlink" width="84.53" height="71.97" viewBox="0 0 84.53 71.97">
  <metadata><?xpacket begin="﻿" id="W5M0MpCehiHzreSzNTczkc9d"?>
<x:xmpmeta xmlns:x="adobe:ns:meta/" x:xmptk="Adobe XMP Core 5.6-c142 79.160924, 2017/07/13-01:06:39        ">
   <rdf:RDF xmlns:rdf="http://www.w3.org/1999/02/22-rdf-syntax-ns#">
      <rdf:Description rdf:about=""/>
   </rdf:RDF>
</x:xmpmeta>
                                                                                                    
                                                                                                    
                                                                                                    
                                                                                                    
                                                                                                    
                                                                                                    
                                                                                                    
                                                                                                    
                                                                                                    
                                                                                                    
                                                                                                    
                                                                                                    
                                                                                                    
                                                                                                    
                                                                                                    
                                                                                                    
                                                                                                    
                                                                                                    
                                                                                                    
                                                                                                    
                           
<?xpacket end="w"?></metadata>
<defs>
    <style>
      .cls-1 {
        fill: #737373;
        fill-rule: evenodd;
        filter: url(#filter);
      }
    </style>
    <filter id="filter" x="1244.69" y="5164.06" width="84.53" height="71.97" filterUnits="userSpaceOnUse">
      <feFlood result="flood" flood-color="#a4c58c"/>
      <feComposite result="composite" operator="in" in2="SourceGraphic"/>
      <feBlend result="blend" in2="SourceGraphic"/>
    </filter>
  </defs>
  <path id="new_vector_shape_done" class="cls-1" d="M1286.51,5164.06a5.158,5.158,0,0,1,2.93,1.08c1.51,0.78,3.03,1.48,4.49,2.24,4.02,2.1,8.09,3.87,12.11,5.96,1.53,0.79,3.12,1.53,4.69,2.34a11.5,11.5,0,0,0,1.56.88h15.82a7.263,7.263,0,0,1,.78.69c0.5,0.62.3,2.24,0.3,3.32v51.46c0,1.48.2,3.01-.69,3.61-0.81.64-3.35,0.3-4.68,0.3h-74.03c-1.61,0-4.17.34-4.78-.69-0.53-.89-0.2-3.22-0.2-4.49v-53.12c0.36-.38.7-0.72,1.08-1.08h15.82a10.737,10.737,0,0,0,1.17-.68c1.12-.58,2.24-1.1,3.32-1.66,3.31-1.73,6.69-3.28,9.96-4.98,2.41-1.26,4.86-2.38,7.23-3.62C1284.36,5165.12,1285.75,5164.8,1286.51,5164.06Zm0.29,3.32c-0.71.83-2.93,1.5-4,2.05-3.15,1.64-6.42,3.24-9.57,4.89-0.74.38-4.12,1.76-4.39,2.24h36.32v-0.19c-1.18-.16-3.51-1.69-4.59-2.25-3.24-1.69-6.52-3.1-9.76-4.78C1289.76,5168.79,1288.03,5167.54,1286.8,5167.38Zm-38.86,12.31v53.12h78.12v-53.12h-78.12Zm56.64,9.37c6.03-.07,9.01,2.42,11.03,6.35a10.539,10.539,0,0,1,.88,6.93,13.276,13.276,0,0,1-1.56,3.71,15.237,15.237,0,0,0-1.37,1.57v17.87c-0.36.37-.7,0.71-1.07,1.07a2.865,2.865,0,0,1-1.37-.19c-0.32-.36-0.65-0.72-0.98-1.08-0.97-.94-1.95-1.89-2.93-2.83-0.47-.47-0.84-1.26-1.66-1.37-1.72,1.76-3.45,3.52-5.17,5.28a2.865,2.865,0,0,1-1.37.19,1.016,1.016,0,0,0-.39-0.19,4.914,4.914,0,0,1-.68-0.88v-17.87c-2.15-1.52-4.08-6.97-2.74-10.75a12.066,12.066,0,0,1,4.2-5.85,13.37,13.37,0,0,1,3.22-1.57A9.583,9.583,0,0,0,1304.58,5189.06Zm-46.19,3.13h29.1a5.42,5.42,0,0,1,.88.68,1.7,1.7,0,0,1-.49,2.15c-0.81.64-5.31,0.29-6.84,0.29h-17.97c-2.7,0-5.76.84-5.76-2.05a2.675,2.675,0,0,0,.3-0.49C1257.81,5192.53,1258.18,5192.44,1258.39,5192.19Zm46.38,0c-0.71.19-1.43,0.39-2.15,0.58a8.643,8.643,0,0,0-4.29,4.59c-1.35,3.54.46,6.54,2.15,8.3l0.48,0.69c0.44,0.26,1.36.55,2.06,0.88a6.174,6.174,0,0,0,3.71.58c2.91-.71,4.82-1.93,6.05-4.29,2.67-5.12-1.17-9.92-5.08-11.14A10.157,10.157,0,0,0,1304.77,5192.19Zm-46.38,6.25h19.72a1.655,1.655,0,0,1,.39,2.83c-0.71.57-3.87,0.29-5.17,0.29H1261.8c-2.41,0-4.5.48-4.49-2.05C1257.67,5199.14,1258.01,5198.8,1258.39,5198.44Zm0,6.25h19.72a1.016,1.016,0,0,0,.39.19,5.472,5.472,0,0,1,.69.88,1.747,1.747,0,0,1-.69,1.76c-0.71.57-3.87,0.29-5.17,0.29H1261.8c-2.41,0-4.5.48-4.49-2.05a5.472,5.472,0,0,1,.69-0.88A1.016,1.016,0,0,0,1258.39,5204.69Zm42.67,5.27v11.13h0.2a19.04,19.04,0,0,1,2.73-2.73,4.291,4.291,0,0,1,1.27-1.17h0.98c0.92,0.9,1.92,1.72,2.83,2.63a4.161,4.161,0,0,0,1.37,1.27v-11.13c-1.64.26-3.5,1.53-5.86,0.98C1303.48,5210.68,1302.01,5210.07,1301.06,5209.96Zm-38.86,9.77c-0.73-.02-1.43-0.52-1.76-0.39a3.857,3.857,0,0,1-.69.97c-1.19.68-1.9-.3-2.44-0.88a10.666,10.666,0,0,1,2.35-6.83c0.95-1.31,2.43-.44,2.93.68a2.978,2.978,0,0,1,1.85-.1,4.409,4.409,0,0,1,.68.88v4.69h0.2v-0.2c0.51-.69.34-1.57,1.07-2.05a1.7,1.7,0,0,1,1.18-.29,3.36,3.36,0,0,1,1.17,1.17c0.49-.32.97-0.65,1.46-0.97,0.46-.21.99-0.22,1.47-0.39a1.41,1.41,0,0,1,1.37-1.18,0.891,0.891,0,0,1,.78.1,1.3,1.3,0,0,1,.88,1.27c0.48,1.04-1.23,2.92-2.06,3.13-0.54.13-.88-0.26-1.36,0-0.68.35-1.23,1.19-1.96,1.56-0.53.27-1.33,0.16-1.85,0.49-0.86.92-.97,2.07-2.83,2.05a4.006,4.006,0,0,0-.49-0.3A5.415,5.415,0,0,1,1262.2,5219.73Z" transform="translate(-1244.69 -5164.06)"/>
</svg>
