<svg xmlns="http://www.w3.org/2000/svg" xmlns:xlink="http://www.w3.org/1999/xlink" width="14.88" height="14.875" viewBox="0 0 14.88 14.875">
  <metadata><?xpacket begin="﻿" id="W5M0MpCehiHzreSzNTczkc9d"?>
<x:xmpmeta xmlns:x="adobe:ns:meta/" x:xmptk="Adobe XMP Core 5.6-c142 79.160924, 2017/07/13-01:06:39        ">
   <rdf:RDF xmlns:rdf="http://www.w3.org/1999/02/22-rdf-syntax-ns#">
      <rdf:Description rdf:about=""/>
   </rdf:RDF>
</x:xmpmeta>
                                                                                                    
                                                                                                    
                                                                                                    
                                                                                                    
                                                                                                    
                                                                                                    
                                                                                                    
                                                                                                    
                                                                                                    
                                                                                                    
                                                                                                    
                                                                                                    
                                                                                                    
                                                                                                    
                                                                                                    
                                                                                                    
                                                                                                    
                                                                                                    
                                                                                                    
                                                                                                    
                           
<?xpacket end="w"?></metadata>
<defs>
    <style>
      .cls-1 {
        fill: #737373;
        fill-rule: evenodd;
        filter: url(#filter);
      }
    </style>
    <filter id="filter" x="1344.34" y="36.219" width="14.88" height="14.875" filterUnits="userSpaceOnUse">
      <feFlood result="flood" flood-color="#7eb252"/>
      <feComposite result="composite" operator="in" in2="SourceGraphic"/>
      <feBlend result="blend" in2="SourceGraphic"/>
    </filter>
  </defs>
  <path id="телефон" class="cls-1" d="M1346.83,36.221a2.239,2.239,0,0,1,1.86,1.022l1.59,1.588a1.8,1.8,0,0,1,.6.913,1.039,1.039,0,0,1,.03.475,2.043,2.043,0,0,1-.71,1.041c-0.17.183-.35,0.365-0.53,0.547a2.138,2.138,0,0,0-.51.548,1.76,1.76,0,0,1,.18.31c0.14,0.2.3,0.389,0.44,0.584,0.16,0.215.39,0.391,0.55,0.6a8.3,8.3,0,0,0,1.53,1.5c0.08,0.058.14,0.159,0.22,0.219,0.22,0.164.43,0.32,0.66,0.475a0.928,0.928,0,0,0,.4.219,4.955,4.955,0,0,1,.64-0.638,3.166,3.166,0,0,1,1.44-1.113,1.151,1.151,0,0,1,.7.109,5.857,5.857,0,0,1,1.46,1.3c0.38,0.384.76,0.767,1.15,1.151a2.348,2.348,0,0,1,.53.584,4,4,0,0,1,.14.492,1.58,1.58,0,0,1-.03.657,3.781,3.781,0,0,1-1.01,1.15,3.365,3.365,0,0,1-.88.767,5.006,5.006,0,0,1-.98.292,4.419,4.419,0,0,1-1.83-.037l-0.31-.037a8.088,8.088,0,0,1-1-.292,15.217,15.217,0,0,1-1.39-.657c-0.25-.138-0.5-0.335-0.75-0.474a14.14,14.14,0,0,1-5.25-5.348c-0.13-.23-0.3-0.466-0.44-0.693a7.306,7.306,0,0,1-.44-0.968,5.685,5.685,0,0,1-.14-4.454,3.21,3.21,0,0,1,.71-0.767l0.78-.8a1.768,1.768,0,0,1,.31-0.183A1.229,1.229,0,0,0,1346.83,36.221Zm0.11,0.8c-0.07.049-.16,0.063-0.22,0.11l-0.84.858a1.809,1.809,0,0,0-.44.474c-0.71,1.6.02,3.675,0.69,4.782a29.225,29.225,0,0,0,1.65,2.446c0.09,0.123.23,0.224,0.32,0.347a3.176,3.176,0,0,0,.57.6c0.07,0.051.1,0.15,0.16,0.2,0.27,0.215.5,0.489,0.77,0.694,0.32,0.24.62,0.5,0.95,0.73a19.907,19.907,0,0,0,1.95,1.168,5.46,5.46,0,0,0,3.78.73,3.8,3.8,0,0,0,.59-0.146,2.138,2.138,0,0,0,.58-0.493c0.29-.286.58-0.572,0.88-0.858a0.611,0.611,0,0,1,.07-0.128,1.265,1.265,0,0,0-.66-1.113c-0.11-.115-0.21-0.249-0.33-0.365-0.36-.359-0.73-0.7-1.09-1.059a2.262,2.262,0,0,0-.79-0.694,0.766,0.766,0,0,0-.67.365c-0.37.359-.73,0.718-1.1,1.077a1.448,1.448,0,0,1-.45.42,2.455,2.455,0,0,0-.41-0.109,4.645,4.645,0,0,1-.69-0.4,13.276,13.276,0,0,1-2.9-2.775,3.847,3.847,0,0,1-1.06-1.807,5.564,5.564,0,0,0,.68-0.675c0.35-.35.71-0.684,1.04-1.059H1350a0.665,0.665,0,0,0,.11-0.511,0.833,0.833,0,0,1-.11-0.164,5.094,5.094,0,0,0-.49-0.493c-0.49-.474-0.97-0.95-1.46-1.424A1.486,1.486,0,0,0,1346.94,37.024Z" transform="translate(-1344.34 -36.219)"/>
</svg>
